<svg width="56" height="56" viewBox="0 0 56 56" fill="none" xmlns="http://www.w3.org/2000/svg">
<path d="M12.6054 50.4167C11.6619 50.4083 10.7439 50.1088 9.97696 49.5592C9.20997 49.0096 8.63131 48.2366 8.31997 47.3459L7.05955 43.8626C6.99709 43.7189 6.88243 43.6042 6.73872 43.5417C6.66291 43.5083 6.58096 43.491 6.4981 43.491C6.41523 43.491 6.33328 43.5083 6.25747 43.5417C4.65589 44.2618 2.92558 44.6515 1.16997 44.6876C0.918085 44.6851 0.672665 44.7673 0.473158 44.9211C0.273652 45.0749 0.131648 45.2913 0.069971 45.5355C0.00332462 45.7751 0.0164705 46.03 0.107423 46.2615C0.198376 46.493 0.362195 46.6886 0.574138 46.8188L5.40955 49.7063L3.57622 53.3501C3.48594 53.5193 3.43872 53.7082 3.43872 53.9001C3.43872 54.0919 3.48594 54.2808 3.57622 54.4501C3.6864 54.6226 3.83916 54.7638 4.01979 54.8602C4.20042 54.9565 4.40281 55.0047 4.60747 55.0001C5.70747 55.0001 14.1408 55.0001 15.7908 50.4167C15.8248 50.3035 15.8256 50.1828 15.7931 50.0691C15.7606 49.9553 15.6962 49.8533 15.6075 49.7751C15.5092 49.7091 15.3935 49.6738 15.2752 49.6738C15.1568 49.6738 15.0411 49.7091 14.9429 49.7751C14.2354 50.1949 13.428 50.4165 12.6054 50.4167ZM53.8783 44.6876C52.1227 44.6515 50.3924 44.2618 48.7908 43.5417C48.715 43.5083 48.633 43.491 48.5502 43.491C48.4673 43.491 48.3854 43.5083 48.3095 43.5417C48.1658 43.6042 48.0512 43.7189 47.9887 43.8626L46.7283 47.3459C46.4311 48.2012 45.8873 48.9493 45.1654 49.4958C44.4435 50.0423 43.5759 50.3628 42.6721 50.4167C41.7643 50.4644 40.8629 50.241 40.0825 49.7751C39.981 49.717 39.8643 49.6914 39.7478 49.7016C39.6314 49.7118 39.5209 49.7574 39.4311 49.8322C39.3413 49.907 39.2766 50.0075 39.2455 50.1202C39.2145 50.2329 39.2187 50.3523 39.2575 50.4626C40.8616 55.0459 49.3408 55.0459 50.4408 55.0459C50.6377 55.0428 50.8308 54.9909 51.0027 54.895C51.1747 54.799 51.3202 54.6619 51.4262 54.4959C51.5165 54.3266 51.5637 54.1378 51.5637 53.9459C51.5637 53.7541 51.5165 53.5652 51.4262 53.3959L49.5929 49.7522L54.4283 46.8647C54.6402 46.7345 54.8041 46.5388 54.895 46.3073C54.986 46.0758 54.9991 45.821 54.9325 45.5813C54.8816 45.3361 54.7502 45.115 54.5592 44.9531C54.3682 44.7911 54.1285 44.6977 53.8783 44.6876ZM41.3887 46.3376C41.4853 46.5288 41.6326 46.6897 41.8144 46.8029C41.9963 46.9161 42.2058 46.9771 42.42 46.9792C42.6555 46.9791 42.8852 46.9065 43.0779 46.7712C43.2706 46.6359 43.417 46.4445 43.497 46.223L47.4387 35.3834C47.719 34.6141 47.7135 33.7697 47.4232 33.0041C47.133 32.2385 46.5773 31.6027 45.8575 31.2126C40.2545 28.0713 33.9474 26.3999 27.5241 26.3542C21.1009 26.3999 14.7937 28.0713 9.1908 31.2126C8.47917 31.6101 7.93322 32.2491 7.65162 33.014C7.37003 33.7789 7.37136 34.6194 7.65539 35.3834L11.4825 46.223C11.5582 46.4338 11.6941 46.6178 11.8733 46.7522C12.0525 46.8866 12.2672 46.9656 12.4908 46.9792C12.7428 47.0281 13.0039 46.9943 13.2351 46.8828C13.4664 46.7713 13.6554 46.5881 13.7741 46.3605C13.7741 46.1084 16.9825 40.1042 27.5241 40.1042C38.0658 40.1042 41.2741 46.1084 41.3887 46.3376ZM13.1325 25.9417C13.4746 25.6819 13.7224 25.3174 13.8382 24.9037C13.9541 24.49 13.9316 24.0498 13.7741 23.6501L12.6971 20.8084C12.6542 20.698 12.6466 20.577 12.6753 20.4621C12.704 20.3472 12.7677 20.244 12.8575 20.1667L15.1491 18.3105C15.4684 18.0452 15.6958 17.6858 15.7988 17.2837C15.9019 16.8815 15.8753 16.4571 15.7228 16.071C15.5704 15.6848 15.3 15.3567 14.95 15.1333C14.6001 14.91 14.1886 14.8028 13.7741 14.8272H11.2075C11.0894 14.8274 10.9745 14.7896 10.8796 14.7195C10.7846 14.6493 10.7148 14.5505 10.6804 14.4376L9.78664 11.6876C9.66733 11.2848 9.42102 10.9314 9.08443 10.68C8.74784 10.4287 8.33901 10.2929 7.91893 10.2929C7.49885 10.2929 7.09002 10.4287 6.75343 10.68C6.41684 10.9314 6.17053 11.2848 6.05122 11.6876L5.15747 14.4376C5.11873 14.5523 5.04463 14.6518 4.94582 14.7218C4.84701 14.7918 4.72855 14.8287 4.60747 14.8272H1.99497C1.60006 14.823 1.21281 14.9362 0.882329 15.1524C0.551853 15.3687 0.293041 15.6782 0.138721 16.0417C-0.0162799 16.4378 -0.0421208 16.8726 0.0648918 17.2842C0.171904 17.6958 0.406293 18.063 0.734554 18.3334L3.02622 20.1897C3.12289 20.2617 3.1932 20.3636 3.22633 20.4795C3.25945 20.5954 3.25356 20.7191 3.20955 20.8313L2.06372 23.6959C1.8983 24.0945 1.87163 24.5372 1.988 24.9528C2.10437 25.3684 2.35702 25.7328 2.70539 25.9876C3.0397 26.2265 3.44032 26.3549 3.85122 26.3549C4.26212 26.3549 4.66274 26.2265 4.99705 25.9876L7.5408 24.1772C7.63474 24.1009 7.75208 24.0592 7.8731 24.0592C7.99411 24.0592 8.11145 24.1009 8.20539 24.1772L10.7491 25.9876C11.0969 26.2413 11.5181 26.3741 11.9485 26.3658C12.3789 26.3576 12.7947 26.2086 13.1325 25.9417ZM21.7262 12.0313C21.8173 12.1078 21.8835 12.2097 21.9161 12.3241C21.9488 12.4384 21.9465 12.56 21.9096 12.673L20.4429 16.5688C20.2855 17.0042 20.271 17.4785 20.4015 17.9227C20.532 18.367 20.8008 18.758 21.1687 19.0391C21.5366 19.3202 21.9846 19.4766 22.4475 19.4857C22.9104 19.4948 23.3642 19.3561 23.7429 19.0897L27.1804 16.6376C27.2786 16.5716 27.3943 16.5363 27.5127 16.5363C27.631 16.5363 27.7467 16.5716 27.845 16.6376L31.2825 19.0897C31.6522 19.3685 32.1027 19.5194 32.5658 19.5194C33.0289 19.5194 33.4794 19.3685 33.8491 19.0897C34.2104 18.7969 34.474 18.4011 34.6049 17.9549C34.7359 17.5088 34.7281 17.0333 34.5825 16.5917L33.1158 12.6959C33.0693 12.586 33.0598 12.464 33.0888 12.3483C33.1177 12.2325 33.1835 12.1293 33.2762 12.0542L36.3241 9.51049C36.6596 9.2218 36.8991 8.83773 37.0107 8.40948C37.1223 7.98122 37.1008 7.52912 36.9489 7.11342C36.7971 6.69772 36.5222 6.33817 36.1608 6.08269C35.7994 5.82721 35.3688 5.68792 34.9262 5.6834H31.3283C31.2043 5.6834 31.0837 5.6432 30.9846 5.56882C30.8854 5.49444 30.813 5.38991 30.7783 5.2709L29.5637 1.51257C29.4343 1.07309 29.1652 0.687743 28.7972 0.414841C28.4292 0.14194 27.9823 -0.00366221 27.5241 7.00006e-05C27.0639 -0.00123709 26.6153 0.144911 26.2441 0.417097C25.873 0.689283 25.5987 1.07319 25.4616 1.51257L24.2471 5.24799C24.2206 5.36714 24.1535 5.4734 24.0574 5.54864C23.9613 5.62387 23.842 5.6634 23.72 5.66049H20.0762C19.6296 5.65676 19.1928 5.79197 18.8264 6.0474C18.4599 6.30283 18.182 6.66585 18.031 7.08621C17.8799 7.50657 17.8633 7.96348 17.9834 8.39371C18.1035 8.82393 18.3543 9.20619 18.7012 9.48757L21.7262 12.0313ZM44.2533 25.9876L46.7971 24.1772C46.891 24.1009 47.0083 24.0592 47.1293 24.0592C47.2504 24.0592 47.3677 24.1009 47.4616 24.1772L50.0054 25.9876C50.3397 26.2265 50.7403 26.3549 51.1512 26.3549C51.5621 26.3549 51.9627 26.2265 52.297 25.9876C52.6454 25.7328 52.8981 25.3684 53.0144 24.9528C53.1308 24.5372 53.1041 24.0945 52.9387 23.6959L51.8616 20.8084C51.8188 20.698 51.8112 20.577 51.8399 20.4621C51.8686 20.3472 51.9323 20.244 52.0221 20.1667L54.3137 18.3105C54.6242 18.0511 54.8473 17.7025 54.9528 17.3119C55.0583 16.9214 55.0411 16.5078 54.9034 16.1274C54.7658 15.747 54.5144 15.4181 54.1834 15.1855C53.8524 14.9529 53.4579 14.8278 53.0533 14.8272H50.4408C50.3197 14.8287 50.2013 14.7918 50.1024 14.7218C50.0036 14.6518 49.9295 14.5523 49.8908 14.4376L48.9971 11.6876C48.8777 11.2848 48.6314 10.9314 48.2948 10.68C47.9582 10.4287 47.5494 10.2929 47.1293 10.2929C46.7093 10.2929 46.3004 10.4287 45.9638 10.68C45.6273 10.9314 45.3809 11.2848 45.2616 11.6876L44.3679 14.4376C44.3335 14.5505 44.2636 14.6493 44.1687 14.7195C44.0738 14.7896 43.9588 14.8274 43.8408 14.8272H41.2741C40.8582 14.8068 40.4464 14.9187 40.098 15.1468C39.7496 15.3749 39.4824 15.7076 39.3347 16.097C39.1871 16.4865 39.1667 16.9126 39.2763 17.3144C39.3859 17.7162 39.62 18.0729 39.945 18.3334L42.2366 20.1897C42.3264 20.2669 42.3901 20.3701 42.4188 20.485C42.4475 20.5999 42.4399 20.7209 42.397 20.8313L41.2741 23.6959C41.1306 24.0895 41.1162 24.5186 41.233 24.9209C41.3499 25.3233 41.5919 25.6779 41.924 25.9333C42.2561 26.1888 42.6609 26.3318 43.0798 26.3415C43.4986 26.3513 43.9097 26.2273 44.2533 25.9876Z" fill="#FFCD29"/>
</svg>
