<svg width="26" height="26" viewBox="0 0 26 26" fill="none" xmlns="http://www.w3.org/2000/svg">
<path d="M22.6667 0C23.4181 0 24.1388 0.298511 24.6701 0.829864C25.2015 1.36122 25.5 2.08189 25.5 2.83333V22.6667C25.5 23.4181 25.2015 24.1388 24.6701 24.6701C24.1388 25.2015 23.4181 25.5 22.6667 25.5H2.83333C2.08189 25.5 1.36122 25.2015 0.829864 24.6701C0.298511 24.1388 0 23.4181 0 22.6667V2.83333C0 2.08189 0.298511 1.36122 0.829864 0.829864C1.36122 0.298511 2.08189 0 2.83333 0H22.6667ZM21.9583 21.9583V14.45C21.9583 13.2251 21.4718 12.0505 20.6057 11.1843C19.7395 10.3182 18.5649 9.83167 17.34 9.83167C16.1358 9.83167 14.7333 10.5683 14.0533 11.6733V10.1008H10.1008V21.9583H14.0533V14.9742C14.0533 13.8833 14.9317 12.9908 16.0225 12.9908C16.5485 12.9908 17.053 13.1998 17.4249 13.5717C17.7969 13.9437 18.0058 14.4482 18.0058 14.9742V21.9583H21.9583ZM5.49667 7.87667C6.12788 7.87667 6.73324 7.62592 7.17958 7.17958C7.62592 6.73324 7.87667 6.12788 7.87667 5.49667C7.87667 4.17917 6.81417 3.1025 5.49667 3.1025C4.86169 3.1025 4.25273 3.35474 3.80374 3.80374C3.35474 4.25273 3.1025 4.86169 3.1025 5.49667C3.1025 6.81417 4.17917 7.87667 5.49667 7.87667ZM7.46583 21.9583V10.1008H3.54167V21.9583H7.46583Z" fill="white"/>
</svg>
