<svg width="30" height="33" viewBox="0 0 30 33" fill="none" xmlns="http://www.w3.org/2000/svg">
<path d="M22.7629 0.5H3.46933C2.6505 0.5 1.98608 1.16442 1.98608 1.98467V30.182C1.98608 31.0022 2.6505 31.6667 3.46933 31.6667H22.7643C23.5832 31.6667 24.2476 31.0022 24.2476 30.182V1.98467C24.2476 1.16442 23.5832 0.5 22.7629 0.5Z" fill="#C77F67"/>
<path d="M18.3104 11.6307C18.3104 11.8276 18.2322 12.0164 18.093 12.1556C17.9538 12.2949 17.765 12.3731 17.5681 12.3731H10.1476C9.95073 12.3731 9.76191 12.2949 9.6227 12.1556C9.48348 12.0164 9.40527 11.8276 9.40527 11.6307V7.17816C9.40527 6.98128 9.48348 6.79246 9.6227 6.65325C9.76191 6.51403 9.95073 6.43582 10.1476 6.43582H17.5681C17.765 6.43582 17.9538 6.51403 18.093 6.65325C18.2322 6.79246 18.3104 6.98128 18.3104 7.17816V11.6307Z" fill="white"/>
<path d="M0.5 4.95258H4.95258M0.5 12.3717H4.95258M0.5 19.795H4.95258M0.5 27.2141H4.95258" stroke="#191919" stroke-linecap="round" stroke-linejoin="round"/>
<path d="M28.7001 4.95258V9.40516H24.2476V3.46933H27.2155C27.6088 3.47008 27.9857 3.62654 28.264 3.9045C28.5422 4.18246 28.699 4.5593 28.7001 4.95258Z" fill="#66E1FF"/>
<path d="M28.7001 9.40518H24.2476V15.341H28.7001V9.40518Z" fill="#FFEF5E"/>
<path d="M28.7001 15.341H24.2476V21.2768H28.7001V15.341Z" fill="#FF808C"/>
<path d="M28.7001 21.2783V25.7308C28.699 26.1241 28.5422 26.501 28.264 26.7789C27.9857 27.0569 27.6088 27.2133 27.2155 27.2141H24.2476V21.2783H28.7001Z" fill="#B2FFC0"/>
<path d="M22.7629 0.5H3.46933C2.6505 0.5 1.98608 1.16442 1.98608 1.98467V30.182C1.98608 31.0022 2.6505 31.6667 3.46933 31.6667H22.7643C23.5832 31.6667 24.2476 31.0022 24.2476 30.182V1.98467C24.2476 1.16442 23.5832 0.5 22.7629 0.5Z" stroke="#191919" stroke-linecap="round" stroke-linejoin="round"/>
<path d="M28.7003 9.40516V4.95258C28.6991 4.5593 28.5423 4.18246 28.2641 3.9045C27.9859 3.62654 27.6089 3.47008 27.2156 3.46933H24.2477V9.40516M28.7003 9.40516H24.2477M28.7003 9.40516V15.341M24.2477 9.40516V15.341M24.2477 15.341H28.7003M24.2477 15.341V21.2768M28.7003 15.341V21.2768M24.2477 21.2768H28.7003M24.2477 21.2768V27.2141H27.2156C27.6089 27.2133 27.9859 27.0569 28.2641 26.7789C28.5423 26.5009 28.6991 26.1241 28.7003 25.7308V21.2768M18.3104 11.6307C18.3104 11.8276 18.2322 12.0164 18.093 12.1557C17.9538 12.2949 17.765 12.3731 17.5681 12.3731H10.1476C9.95073 12.3731 9.76191 12.2949 9.6227 12.1557C9.48348 12.0164 9.40527 11.8276 9.40527 11.6307V7.17816C9.40527 6.98128 9.48348 6.79247 9.6227 6.65325C9.76191 6.51404 9.95073 6.43583 10.1476 6.43583H17.5681C17.765 6.43583 17.9538 6.51404 18.093 6.65325C18.2322 6.79247 18.3104 6.98128 18.3104 7.17816V11.6307Z" stroke="#191919" stroke-linecap="round" stroke-linejoin="round"/>
</svg>
