<svg width="34" height="34" viewBox="0 0 34 34" fill="none" xmlns="http://www.w3.org/2000/svg">
<path d="M16.9997 2.8335C15.1393 2.8335 13.2971 3.19993 11.5783 3.91187C9.85955 4.62381 8.29783 5.66732 6.98233 6.98282C4.32556 9.63958 2.83301 13.2429 2.83301 17.0002C2.83301 23.2618 6.89884 28.5743 12.523 30.4585C13.2313 30.5718 13.458 30.1327 13.458 29.7502V27.356C9.53384 28.206 8.69801 25.4577 8.69801 25.4577C8.04634 23.8143 7.12551 23.3752 7.12551 23.3752C5.83634 22.4968 7.22467 22.5252 7.22467 22.5252C8.64134 22.6243 9.39218 23.9843 9.39218 23.9843C10.6247 26.1377 12.7072 25.5002 13.5147 25.1602C13.6422 24.2393 14.0105 23.616 14.4072 23.2618C11.2622 22.9077 7.96134 21.6893 7.96134 16.2918C7.96134 14.7193 8.49967 13.4585 9.42051 12.4527C9.27884 12.0985 8.78301 10.6252 9.56217 8.71266C9.56217 8.71266 10.7522 8.33016 13.458 10.1577C14.5772 9.846 15.7955 9.69016 16.9997 9.69016C18.2038 9.69016 19.4222 9.846 20.5413 10.1577C23.2472 8.33016 24.4372 8.71266 24.4372 8.71266C25.2163 10.6252 24.7205 12.0985 24.5788 12.4527C25.4997 13.4585 26.038 14.7193 26.038 16.2918C26.038 21.7035 22.723 22.8935 19.5638 23.2477C20.0738 23.6868 20.5413 24.551 20.5413 25.8685V29.7502C20.5413 30.1327 20.768 30.586 21.4905 30.4585C27.1147 28.5602 31.1663 23.2618 31.1663 17.0002C31.1663 15.1398 30.7999 13.2976 30.088 11.5788C29.376 9.86003 28.3325 8.29831 27.017 6.98282C25.7015 5.66732 24.1398 4.62381 22.421 3.91187C20.7022 3.19993 18.8601 2.8335 16.9997 2.8335Z" fill="white"/>
</svg>
