<svg width="34" height="34" viewBox="0 0 34 34" fill="none" xmlns="http://www.w3.org/2000/svg">
<path d="M11.0497 2.8335H22.9497C27.483 2.8335 31.1663 6.51683 31.1663 11.0502V22.9502C31.1663 25.1294 30.3007 27.2193 28.7597 28.7602C27.2188 30.3011 25.1289 31.1668 22.9497 31.1668H11.0497C6.51634 31.1668 2.83301 27.4835 2.83301 22.9502V11.0502C2.83301 8.87097 3.69869 6.78103 5.23961 5.2401C6.78054 3.69918 8.87048 2.8335 11.0497 2.8335ZM10.7663 5.66683C9.41374 5.66683 8.11653 6.20415 7.1601 7.16059C6.20366 8.11702 5.66634 9.41423 5.66634 10.7668V23.2335C5.66634 26.0527 7.94717 28.3335 10.7663 28.3335H23.233C24.5856 28.3335 25.8828 27.7962 26.8393 26.8397C27.7957 25.8833 28.333 24.5861 28.333 23.2335V10.7668C28.333 7.94766 26.0522 5.66683 23.233 5.66683H10.7663ZM24.4372 7.79183C24.9068 7.79183 25.3573 7.9784 25.6893 8.31049C26.0214 8.64259 26.208 9.09301 26.208 9.56266C26.208 10.0323 26.0214 10.4827 25.6893 10.8148C25.3573 11.1469 24.9068 11.3335 24.4372 11.3335C23.9675 11.3335 23.5171 11.1469 23.185 10.8148C22.8529 10.4827 22.6663 10.0323 22.6663 9.56266C22.6663 9.09301 22.8529 8.64259 23.185 8.31049C23.5171 7.9784 23.9675 7.79183 24.4372 7.79183ZM16.9997 9.91683C18.8783 9.91683 20.68 10.6631 22.0083 11.9915C23.3367 13.3199 24.083 15.1215 24.083 17.0002C24.083 18.8788 23.3367 20.6805 22.0083 22.0088C20.68 23.3372 18.8783 24.0835 16.9997 24.0835C15.1211 24.0835 13.3194 23.3372 11.991 22.0088C10.6626 20.6805 9.91634 18.8788 9.91634 17.0002C9.91634 15.1215 10.6626 13.3199 11.991 11.9915C13.3194 10.6631 15.1211 9.91683 16.9997 9.91683ZM16.9997 12.7502C15.8725 12.7502 14.7915 13.1979 13.9945 13.995C13.1974 14.792 12.7497 15.873 12.7497 17.0002C12.7497 18.1273 13.1974 19.2083 13.9945 20.0054C14.7915 20.8024 15.8725 21.2502 16.9997 21.2502C18.1268 21.2502 19.2078 20.8024 20.0049 20.0054C20.8019 19.2083 21.2497 18.1273 21.2497 17.0002C21.2497 15.873 20.8019 14.792 20.0049 13.995C19.2078 13.1979 18.1268 12.7502 16.9997 12.7502Z" fill="white"/>
</svg>
