<svg width="38" height="41" viewBox="0 0 38 41" fill="none" xmlns="http://www.w3.org/2000/svg">
<path fill-rule="evenodd" clip-rule="evenodd" d="M36.0676 1.27225C36.8746 2.08233 37.3268 3.17938 37.3249 4.32241C37.323 5.46544 36.8672 6.56099 36.0575 7.3684L21.6461 21.7223C20.8354 22.5288 19.7376 22.9806 18.5938 22.9787C17.4499 22.9769 16.3536 22.5213 15.5457 21.7123L1.18176 7.31079C0.420676 6.49187 0.00738829 5.40971 0.0289664 4.2923C0.0505446 3.17489 0.505303 2.10947 1.29743 1.32051C2.08957 0.531538 3.15722 0.0806208 4.27547 0.0627521C5.39372 0.0448834 6.47526 0.461458 7.29222 1.22471L18.611 12.5673L29.9672 1.25642C30.7779 0.450016 31.8757 -0.0018727 33.0195 1.68909e-05C34.1633 0.00190648 35.2597 0.45742 36.0676 1.2665L36.0676 1.27225ZM36.0391 18.5255C36.846 19.3356 37.2982 20.4326 37.2964 21.5757C37.2945 22.7187 36.8386 23.8142 36.029 24.6217L21.6175 38.9756C20.8069 39.782 19.7091 40.2339 18.5652 40.232C17.4214 40.2301 16.3251 39.7746 15.5171 38.9655L1.15322 24.564C0.392134 23.7451 -0.0211535 22.663 0.000424648 21.5456C0.0220028 20.4281 0.476761 19.3627 1.26889 18.5738C2.06102 17.7848 3.12868 17.3339 4.24693 17.316C5.36518 17.2981 6.44671 17.7147 7.26368 18.478L18.5825 29.8206L29.9387 18.5097C30.7493 17.7033 31.8472 17.2514 32.991 17.2533C34.1348 17.2552 35.2311 17.7107 36.0391 18.5198L36.0391 18.5255Z" fill="white"/>
</svg>
